<?xml version="1.0" standalone="no"?><!DOCTYPE svg PUBLIC "-//W3C//DTD SVG 1.1//EN" "http://www.w3.org/Graphics/SVG/1.1/DTD/svg11.dtd"><svg t="1661415428499" class="icon" viewBox="0 0 1024 1024" version="1.1" xmlns="http://www.w3.org/2000/svg" p-id="2246" xmlns:xlink="http://www.w3.org/1999/xlink" width="200" height="200"><defs><style type="text/css">@font-face { font-weight: 400; font-style: normal; font-family: Circular-Loom; src: url("https://cdn.loom.com/assets/fonts/circular/CircularXXWeb-Book-cd7d2bcec649b1243839a15d5eb8f0a3.woff2") format("woff2"); }
@font-face { font-weight: 500; font-style: normal; font-family: Circular-Loom; src: url("https://cdn.loom.com/assets/fonts/circular/CircularXXWeb-Medium-d74eac43c78bd5852478998ce63dceb3.woff2") format("woff2"); }
@font-face { font-weight: 700; font-style: normal; font-family: Circular-Loom; src: url("https://cdn.loom.com/assets/fonts/circular/CircularXXWeb-Bold-83b8ceaf77f49c7cffa44107561909e4.woff2") format("woff2"); }
@font-face { font-weight: 900; font-style: normal; font-family: Circular-Loom; src: url("https://cdn.loom.com/assets/fonts/circular/CircularXXWeb-Black-bf067ecb8aa777ceb6df7d72226febca.woff2") format("woff2"); }
</style></defs><path d="M259.328 512A252.928 252.928 0 0 1 512 259.328a253.696 253.696 0 0 1 218.837333 126.250667l-63.957333 36.992 214.485333-123.818667a67.370667 67.370667 0 0 0-23.168-24.533333l-313.386666-180.906667c-18.090667-10.453333-47.616-10.453333-65.664 0l-313.386667 180.906667c-18.005333 10.410667-32.768 36.010667-32.768 56.874666v361.813334c0 10.453333 3.669333 22.058667 9.642667 32.341333l150.570666-86.954667A251.008 251.008 0 0 1 259.328 512z" p-id="2247" fill="#13227a"></path><path d="M621.397333 448.810667A126.762667 126.762667 0 0 0 512 385.664a126.464 126.464 0 0 0-109.397333 189.482667L512 512l109.397333-63.189333z" p-id="2248" fill="#13227a"></path><path d="M881.365333 298.752l-215.296 124.288-44.629333 25.813333-0.042667-0.042666L512 512l-109.354667 63.146667A126.464 126.464 0 0 0 512 638.336a126.72 126.72 0 0 0 109.44-63.189333l109.354667 63.274666a253.610667 253.610667 0 0 1-218.837334 126.250667 252.842667 252.842667 0 0 1-218.794666-126.378667l-150.570667 86.954667c5.973333 10.325333 14.165333 19.328 23.168 24.533333l313.386667 180.906667c18.048 10.453333 47.573333 10.453333 65.664 0l313.386666-180.906667c9.002667-5.205333 17.194667-14.208 23.168-24.533333 5.973333-10.282667 9.642667-21.888 9.642667-32.341333V331.093333c0-10.453333-3.669333-22.058667-9.642667-32.341333z m-116.693333 227.285333h-28.074667v28.074667h-28.032v-28.074667h-28.074666v-28.074666h28.074666v-28.074667h28.032v28.074667h28.074667v28.074666z m105.301333 0h-28.074666v28.074667h-28.074667v-28.074667h-28.032v-28.074666h28.032v-28.074667h28.074667v28.074667h28.074666v28.074666z" p-id="2249" fill="#13227a"></path></svg>